<?xml version="1.0" standalone="no"?><!DOCTYPE svg PUBLIC "-//W3C//DTD SVG 1.1//EN" "http://www.w3.org/Graphics/SVG/1.1/DTD/svg11.dtd"><svg t="1686224041172" class="icon" viewBox="0 0 1024 1024" version="1.1" xmlns="http://www.w3.org/2000/svg" p-id="1371" width="64" height="64" xmlns:xlink="http://www.w3.org/1999/xlink"><path d="M1007.0784 63.9616a38.4 38.4 0 0 1 3.3536 23.8336l-131.5328 726.784a38.4 38.4 0 0 1-49.4336 29.76l-386.4192-122.9952L857.6 217.6 353.408 692.8128 44.1984 594.4064a51.2 51.2 0 0 1-7.1296-94.7072L955.648 46.5152a38.4 38.4 0 0 1 51.4304 17.4464z" fill="#cdcdcd" p-id="1372" data-spm-anchor-id="a313x.7781069.0.i0" class=""></path><path d="M435.2 785.408V971.52a12.8 12.8 0 0 0 20.864 9.9328l165.4272-134.4a12.8 12.8 0 0 0-4.2496-22.144l-165.4272-51.712A12.8 12.8 0 0 0 435.2 785.408z" fill="#cdcdcd" p-id="1373"></path></svg>